<svg width="216" height="89" viewBox="0 0 216 89" fill="none" xmlns="http://www.w3.org/2000/svg">
<path d="M145.266 72.115C145.079 73.2484 144.67 74.2357 144.039 75.077C143.402 75.9183 142.573 76.5258 141.55 76.8997C143.256 77.519 144.109 78.7926 144.109 80.7206C144.109 81.1529 144.071 81.5881 143.995 82.0263C143.686 83.9192 142.868 85.295 141.541 86.1538C140.724 86.6913 139.76 87.0652 138.65 87.2755C137.645 87.4625 136.497 87.5559 135.206 87.5559C132.717 87.5559 130.503 87.3778 128.563 87.0214L131.691 67.2513C133.666 66.895 135.825 66.7168 138.168 66.7168C138.652 66.7168 139.149 66.7314 139.657 66.7606C140.066 66.784 140.548 66.8395 141.103 66.9271C141.582 67.003 142.032 67.1111 142.453 67.2513C143.364 67.5376 144.059 67.9728 144.539 68.5571C145.082 69.2055 145.354 70.041 145.354 71.0634C145.354 71.4197 145.324 71.7703 145.266 72.115ZM136.494 78.1617H133.427L132.41 84.5764C133.403 84.7108 134.449 84.778 135.547 84.778C136.161 84.778 136.669 84.7575 137.072 84.7166C137.493 84.6757 137.919 84.5881 138.352 84.4537C138.983 84.2551 139.476 83.9279 139.833 83.4722C140.195 83.0165 140.452 82.371 140.604 81.5355C140.651 81.2084 140.674 80.9396 140.674 80.7293C140.674 79.8997 140.414 79.2834 139.894 78.8803C139.649 78.6875 139.345 78.5414 138.983 78.4421C138.352 78.2551 137.522 78.1617 136.494 78.1617ZM134.785 69.6612L133.839 75.6466H136.897C137.493 75.6466 137.984 75.6261 138.369 75.5852C138.79 75.5385 139.205 75.4509 139.614 75.3223C140.227 75.1237 140.712 74.7995 141.068 74.3496C141.425 73.8998 141.673 73.2776 141.813 72.483C141.854 72.2377 141.874 71.9835 141.874 71.7206C141.874 70.967 141.632 70.412 141.147 70.0556C140.931 69.892 140.636 69.7664 140.262 69.6788C139.917 69.5911 139.541 69.5327 139.132 69.5035C138.711 69.4743 138.246 69.4597 137.738 69.4597C136.815 69.4597 135.831 69.5269 134.785 69.6612Z" fill="white"/>
<path d="M147.432 82.4294C147.432 81.5881 147.519 80.6242 147.695 79.5375C147.934 78.0477 148.25 76.8092 148.641 75.8219C149.033 74.8287 149.556 74.0049 150.21 73.3506C150.852 72.708 151.618 72.2435 152.506 71.9572C153.4 71.671 154.489 71.5278 155.775 71.5278C157.825 71.5278 159.3 71.9339 160.2 72.7459C161.111 73.5522 161.567 74.8725 161.567 76.707C161.567 77.4957 161.482 78.4392 161.313 79.5375C161.079 80.9981 160.764 82.2278 160.367 83.2269C159.969 84.22 159.449 85.0438 158.807 85.6981C158.164 86.3466 157.393 86.8198 156.493 87.1178C155.593 87.4099 154.507 87.5559 153.233 87.5559C151.183 87.5559 149.702 87.1616 148.79 86.3729C147.885 85.5725 147.432 84.258 147.432 82.4294ZM158.044 79.5375C158.22 78.4333 158.307 77.5599 158.307 76.9173C158.307 75.9007 158.091 75.1909 157.659 74.7878C157.232 74.3788 156.493 74.1744 155.442 74.1744C154.98 74.1744 154.562 74.2065 154.188 74.2708C153.435 74.411 152.848 74.7352 152.427 75.2435C152.088 75.6466 151.805 76.1899 151.577 76.8735C151.355 77.5512 151.156 78.4392 150.981 79.5375C150.8 80.6651 150.709 81.5735 150.709 82.2629C150.709 83.2794 150.923 83.9747 151.349 84.3486C151.776 84.7225 152.515 84.9094 153.566 84.9094C154.285 84.9094 154.881 84.8247 155.354 84.6553C155.833 84.48 156.245 84.185 156.59 83.7702C156.952 83.3379 157.241 82.7916 157.457 82.1314C157.691 81.4187 157.887 80.5541 158.044 79.5375Z" fill="white"/>
<path d="M163.928 83.3057L166.715 65.709H169.983L167.223 83.1568C167.159 83.5949 167.126 83.9688 167.126 84.2785C167.126 85.1139 167.345 85.9084 167.784 86.6621L164.725 88.0379C164.1 87.1558 163.788 86.1071 163.788 84.8919C163.788 84.4362 163.834 83.9075 163.928 83.3057Z" fill="white"/>
<path d="M173.376 68.2591C173.376 68.0838 173.4 67.8385 173.447 67.523C173.569 66.7577 173.794 66.2289 174.121 65.9368C174.46 65.6447 175.001 65.4987 175.743 65.4987C176.374 65.4987 176.818 65.5951 177.075 65.7879C177.338 65.9806 177.469 66.3137 177.469 66.7869C177.469 66.9621 177.446 67.2075 177.399 67.523C177.288 68.2942 177.066 68.8258 176.733 69.1179C176.412 69.4042 175.868 69.5473 175.103 69.5473C174.472 69.5473 174.025 69.4509 173.762 69.2581C173.505 69.0653 173.376 68.7323 173.376 68.2591ZM170.651 87.3456L173.122 71.7381H176.4L173.929 87.3456H170.651Z" fill="white"/>
<path d="M179.505 71.7381H182.957L185.017 84.1908L191.028 71.7381H194.341L187.383 85.4089C186.653 86.8403 185.659 87.5559 184.403 87.5559C183.766 87.5559 183.261 87.3807 182.887 87.0301C182.513 86.6796 182.256 86.1392 182.116 85.4089L179.505 71.7381Z" fill="white"/>
<path d="M197.251 68.2591C197.251 68.0838 197.274 67.8385 197.321 67.523C197.444 66.7577 197.668 66.2289 197.996 65.9368C198.334 65.6447 198.875 65.4987 199.617 65.4987C200.248 65.4987 200.692 65.5951 200.949 65.7879C201.212 65.9806 201.343 66.3137 201.343 66.7869C201.343 66.9621 201.32 67.2075 201.273 67.523C201.162 68.2942 200.94 68.8258 200.607 69.1179C200.286 69.4042 199.742 69.5473 198.977 69.5473C198.346 69.5473 197.899 69.4509 197.636 69.2581C197.379 69.0653 197.251 68.7323 197.251 68.2591ZM194.525 87.3456L196.997 71.7381H200.274L197.803 87.3456H194.525Z" fill="white"/>
<path d="M215.904 76.4441L214.817 83.3233C214.671 84.2463 214.475 85.2015 214.23 86.1889C212.495 87.1003 210.143 87.5559 207.175 87.5559C205.423 87.5559 204.135 87.2551 203.311 86.6533C202.493 86.0516 202.084 85.1285 202.084 83.8841C202.084 83.5102 202.119 83.1129 202.189 82.6923C202.417 81.2668 202.922 80.1509 203.705 79.3447C204.494 78.5385 205.616 78.0244 207.07 77.8024C208.204 77.6329 210.035 77.4957 212.565 77.3905C212.617 77.0633 212.644 76.7625 212.644 76.4879C212.644 75.6933 212.416 75.1033 211.96 74.7177C211.504 74.3321 210.792 74.1393 209.822 74.1393C208.309 74.1393 206.518 74.2708 204.45 74.5336L204.564 72.0974C206.872 71.7177 208.864 71.5278 210.541 71.5278C211.855 71.5278 212.93 71.6826 213.765 71.9923C215.255 72.5473 216 73.6602 216 75.3311C216 75.6349 215.968 76.0059 215.904 76.4441ZM207.999 79.9406C207.152 80.1334 206.542 80.4109 206.168 80.7731C205.805 81.1354 205.554 81.7575 205.414 82.6397C205.379 82.8793 205.361 83.0925 205.361 83.2794C205.361 83.9571 205.58 84.4245 206.019 84.6816C206.463 84.9386 207.14 85.0672 208.052 85.0672C209.442 85.0672 210.538 84.889 211.338 84.5326C211.507 83.8724 211.651 83.1743 211.767 82.4382L212.223 79.5638C212.206 79.5638 212.17 79.5667 212.118 79.5726C212.071 79.5726 212.001 79.5755 211.908 79.5813C211.82 79.5813 211.732 79.5813 211.645 79.5813L210.996 79.6076L210.409 79.6427C210.17 79.6485 209.953 79.6631 209.761 79.6865C209.714 79.6865 209.518 79.7069 209.173 79.7478C208.823 79.7829 208.431 79.8471 207.999 79.9406Z" fill="white"/>
<path d="M53.4561 42.7785L56.3241 29.9623H60.2633C65.861 29.9623 70.4913 31.521 70.3876 36.6821C70.2494 42.5014 64.3061 44.8915 57.7754 44.8915C56.7388 44.8915 55.7713 44.8915 54.8728 44.8568C53.0415 44.7183 53.4561 42.7785 53.4561 42.7785ZM83.0344 36.9939C83.0344 29.3042 77.6094 25.9442 73.2211 25.6325C78.7497 24.6972 86.0752 20.6099 86.0752 13.128C86.0752 5.1265 78.0586 0.831333 65.9301 0.831333C60.4361 0.831333 55.0802 1.31627 50.2772 2.07832L41.6041 40.7002C41.6041 40.7002 38.5979 50.6761 47.1327 52.7544C49.517 53.3433 51.1756 53.5511 53.8017 53.7243C76.4691 54.9366 83.0344 44.7183 83.0344 36.9939ZM60.8853 9.8027C61.8182 9.66414 63.9951 9.52559 66.1029 9.52559C70.6641 9.52559 73.9121 11.119 73.8085 14.8253C73.7048 19.3283 69.1437 21.8569 62.5784 21.8569H60.0214C58.1555 21.8569 58.7083 19.7093 58.7083 19.7093L60.8853 9.8027Z" fill="white"/>
<path d="M138.425 53.8282C140.256 53.8282 143.746 53.1008 144.921 47.8011C145.854 43.5752 147.443 36.405 147.443 36.405C148.687 36.5089 150.38 36.7168 152.385 36.7168C171.804 36.7168 178.542 24.2123 178.542 15.7259C178.542 6.44275 172.115 1.14306 158.086 1.07378C152.35 1.03915 147.374 1.24698 142.64 2.32077L131.237 53.7935H138.425V53.8282ZM154.043 10.1491C155.045 10.0105 156.773 9.9066 159.088 9.9066C163.58 9.9066 167.346 11.2229 167.346 16.6611C167.346 22.2033 163.165 27.5029 155.011 27.5722C154.492 27.5722 153.974 27.5722 153.525 27.5376C149.862 27.5376 150.899 24.4894 150.899 24.4894L154.043 10.1491Z" fill="white"/>
<path d="M102.765 31.0707C102.765 22.6882 108.19 10.1837 120.595 10.1837C123.843 10.1837 129.682 11.015 133.034 14.0286C133.034 14.0286 134.278 9.76805 134.658 8.00149C135.004 6.26956 134.347 3.39457 129.026 1.66265C125.57 0.554216 122.875 0 119.074 0C99.6204 0 89.5652 16.003 89.5652 31.7635C89.5652 48.5978 100.795 54.2785 112.302 54.2785C116.448 54.2785 119.143 53.8282 121.77 52.8583C124.949 51.7499 125.467 48.8749 125.467 48.8749L127.367 40.2153C122.461 43.8177 118.832 44.3719 115.515 44.3719C107.464 44.4065 102.765 39.2107 102.765 31.0707Z" fill="white"/>
<path d="M34.8315 18.7048C35.2116 19.2243 39.8764 25.0436 35.5917 31.902C30.8924 39.4186 18.1074 47.9396 14.4792 49.2213C7.43016 52.1655 2.6617 46.6926 2.24706 46.1384C0.934002 44.4412 0.623015 44.0948 0.00104207 42.8478C-0.137174 43.0556 13.5117 36.6821 18.4184 28.4382C23.7051 21.3719 24.1889 7.4819 18.3838 4.88402C20.1115 5.78462 24.258 8.14003 27.9898 11.4653C31.6871 14.6174 34.9006 18.7394 34.8315 18.7048Z" fill="#F47D30"/>
<path d="M20.6643 24.3509C23.6705 17.0075 23.1867 7.03162 18.3837 4.88403C13.9953 2.80573 8.98499 8.69427 8.74312 9.00601C8.74312 9.00601 7.08452 11.015 5.84058 13.8554C6.70443 14.3403 8.36302 15.137 8.36302 15.137C11.7493 16.765 16.3105 19.64 20.6643 24.3509Z" fill="white"/>
<path d="M213.338 18.7048C213.718 19.2243 218.383 25.0436 214.098 31.902C209.433 39.4186 196.648 47.9396 193.02 49.2213C185.971 52.1655 181.203 46.6926 180.788 46.1384C179.475 44.4412 179.164 44.0948 178.542 42.8478C178.404 43.0556 192.053 36.6821 196.959 28.4382C202.246 21.3719 202.73 7.4819 196.925 4.88402C198.687 5.78462 202.799 8.14003 206.496 11.4653C210.193 14.6174 213.407 18.7394 213.338 18.7048Z" fill="#F47D30"/>
<path d="M199.171 24.3509C202.177 17.0075 201.693 7.03162 196.89 4.88403C192.502 2.80573 187.491 8.69427 187.249 9.00601C187.249 9.00601 185.591 11.015 184.347 13.8554C185.211 14.3403 186.869 15.137 186.869 15.137C190.256 16.765 194.817 19.64 199.171 24.3509Z" fill="white"/>
</svg>
