<svg width="136" height="35" viewBox="0 0 136 35" fill="none" xmlns="http://www.w3.org/2000/svg">
<path d="M38.3549 6.01884C38.9149 5.87887 40.3146 5.87887 41.5744 5.87887C44.514 5.87887 46.4736 6.85871 46.4736 9.23833C46.3337 12.0379 43.5341 13.7176 39.3348 13.7176H37.795C36.6752 13.7176 36.9552 12.3178 36.9552 12.3178L38.3549 6.01884ZM52.3527 23.0961C52.3527 18.3369 48.9932 16.0972 46.1937 15.9573C49.6931 15.3973 54.3124 12.8777 54.3124 8.11851C54.3124 3.07931 49.2732 0.419739 41.5744 0.419739C38.075 0.419739 34.7155 0.699695 31.776 1.25961L26.3169 25.4757C26.3169 25.4757 24.3572 31.7747 29.8163 33.0345C31.3561 33.4545 32.3359 33.5944 34.0156 33.5944C48.1534 34.4343 52.3527 27.9953 52.3527 23.0961ZM33.7357 26.7355L35.5554 18.7568H38.075C41.5744 18.7568 44.514 19.7366 44.374 22.9561C44.234 26.5956 40.5946 28.1353 36.3953 28.1353C35.6954 28.1353 35.1355 28.1353 34.5755 28.1353C33.4557 27.9953 33.7357 26.7355 33.7357 26.7355Z" fill="white"/>
<path d="M97.0072 6.2989C97.7071 6.15892 98.6869 6.15892 100.227 6.15892C103.026 6.15892 105.406 6.99879 105.406 10.3582C105.406 13.8577 102.746 17.2172 97.5671 17.2172C97.2872 17.2172 96.8672 17.2172 96.5873 17.2172C94.3476 17.2172 94.9075 15.2575 94.9075 15.2575L97.0072 6.2989ZM87.2088 33.7345C88.3286 33.7345 90.5682 33.3146 91.2681 29.9551C91.828 27.2955 92.8079 22.8163 92.8079 22.8163C93.6477 22.8163 94.6276 22.9562 95.8874 22.9562C108.065 22.9562 112.405 15.1175 112.405 9.79834C112.405 3.91928 108.345 0.699792 99.5268 0.559814C95.8874 0.559814 92.8079 0.699793 89.8683 1.39968L82.7295 33.7345H87.2088Z" fill="white"/>
<path d="M64.6711 19.4568C64.6711 14.1377 68.0306 6.29893 75.8693 6.29893C77.969 6.29893 81.6084 6.85884 83.7081 8.67855C83.7081 8.67855 84.5479 6.01898 84.6879 4.89916C84.9679 3.77933 84.5479 1.95962 81.1885 0.979781C78.9488 0.279893 77.2691 -6.10352e-05 74.8895 -6.10352e-05C62.7114 -6.10352e-05 56.2725 10.0783 56.2725 20.0167C56.2725 30.655 63.4113 34.1545 70.5502 34.1545C73.2097 34.1545 74.8895 33.8745 76.4292 33.3146C78.3889 32.6147 78.8089 30.795 78.8089 30.795L80.0687 25.3359C76.9891 27.5755 74.7495 27.9955 72.6498 27.9955C67.7506 27.7155 64.6711 24.496 64.6711 19.4568Z" fill="white"/>
<path d="M21.9782 11.6183C22.2581 11.8982 25.1976 15.5376 22.3981 19.877C19.4586 24.6362 11.3399 29.9553 9.10022 30.7952C4.62094 32.6149 1.68141 29.2555 1.40145 28.8355C0.561584 27.7157 0.421607 27.5757 0.00167368 26.7359C-0.138304 26.8758 8.54031 22.8165 11.6198 17.6373C14.9793 13.158 15.2592 4.47941 11.6198 2.79968C12.7396 3.35959 15.2592 4.89935 17.6389 6.99901C20.0185 9.09868 21.9782 11.6183 21.9782 11.6183Z" fill="#F26E29"/>
<path d="M13.0198 15.1174C14.9795 10.4981 14.5595 4.19911 11.62 2.93931C8.82044 1.67952 5.74094 5.31894 5.60096 5.59889C5.60096 5.59889 4.62112 6.85869 3.78125 8.6784C4.34116 8.95835 5.321 9.51826 5.321 9.51826C7.42067 10.3581 10.3602 12.1778 13.0198 15.1174Z" fill="white"/>
<path d="M134.38 11.6183C134.659 11.8982 137.599 15.5376 134.799 19.877C131.86 24.6362 123.741 29.9553 121.502 30.7952C117.022 32.6149 114.083 29.2555 113.803 28.8355C112.963 27.7157 112.823 27.5757 112.403 26.7359C112.263 26.8758 120.942 22.8165 124.021 17.6373C127.381 13.158 127.661 4.47941 124.021 2.79968C125.141 3.35959 127.661 4.89935 130.04 6.99901C132.42 9.09868 134.38 11.6183 134.38 11.6183Z" fill="#F26E29"/>
<path d="M125.421 15.1174C127.381 10.4981 126.961 4.19911 124.021 2.93931C121.222 1.67952 118.142 5.31894 118.002 5.59889C118.002 5.59889 117.022 6.85869 116.183 8.6784C116.743 8.95835 117.722 9.51826 117.722 9.51826C119.822 10.3581 122.762 12.1778 125.421 15.1174Z" fill="white"/>
</svg>
