<svg id="Capa_1" data-name="Capa 1" xmlns="http://www.w3.org/2000/svg" width="254.4" height="293.93" viewBox="0 0 254.4 293.93">
  <path id="Trazado_20764" data-name="Trazado 20764" d="M10.09,285.84c0,1.9-1.18,4.73-5.14,4.73A5.8,5.8,0,0,1,0,288.09l1.59-1.9c1.24,1.13,2.05,1.63,3.27,1.63,1.65,0,2.18-1.02,2.18-2.48v-8.06H4.69l-.04-2.4H10.1v10.96Z" fill="#00c1d4"/>
  <path id="Trazado_20765" data-name="Trazado 20765" d="M25.4,288.18a2.176,2.176,0,0,0,.63-.11l.17,1.76a2.914,2.914,0,0,1-1.87.57,2.493,2.493,0,0,1-2.42-1.26,5.225,5.225,0,0,1-3.53,1.22c-2.72,0-4.16-1.57-4.16-4.55v-3.68c0-.46-.24-.74-.81-.74a2.176,2.176,0,0,0-.63.11l-.17-1.76a2.914,2.914,0,0,1,1.87-.57,2.443,2.443,0,0,1,2.7,2.7v3.68c0,2,.59,2.42,1.81,2.42a6.677,6.677,0,0,0,2.63-.55v-8.17h2.96v8.19c0,.46.24.74.81.74" fill="#00c1d4"/>
  <path id="Trazado_20766" data-name="Trazado 20766" d="M28.41,281.38a2.176,2.176,0,0,0-.63.11l-.18-1.76a2.928,2.928,0,0,1,1.88-.57,2.46,2.46,0,0,1,2.48,1.42,5.237,5.237,0,0,1,3.94-1.55c2.4,0,3.77,1.24,3.77,4.25v4.16c0,.46.24.74.8.74a2.176,2.176,0,0,0,.63-.11l.17,1.77a2.928,2.928,0,0,1-1.88.57,2.443,2.443,0,0,1-2.7-2.7v-4.14c0-1.61-.67-2.14-1.81-2.14a3.013,3.013,0,0,0-2.72,1.5v7.21H29.2v-8.02c0-.46-.24-.74-.81-.74" fill="#00c1d4"/>
  <path id="Trazado_20767" data-name="Trazado 20767" d="M48.34,288a9.417,9.417,0,0,0,1.81-.24l.43,2.14a8.423,8.423,0,0,1-3.14.57c-1.68,0-3.33-.65-3.33-3.14v-5.77H42.54l.17-2.09H44.1v-2.51l2.96-.43v2.94h2.9l-.17,2.09H47.07v5.38c0,.76.39,1.07,1.26,1.07" fill="#00c1d4"/>
  <path id="Trazado_20768" data-name="Trazado 20768" d="M52.59,284.69a5.49,5.49,0,0,1,5.86-5.79,5.79,5.79,0,1,1,0,11.58,5.5,5.5,0,0,1-5.86-5.79M58.45,288c2,0,2.88-1.37,2.88-3.31s-.87-3.4-2.88-3.4-2.9,1.46-2.9,3.4.87,3.31,2.9,3.31" fill="#00c1d4"/>
  <path id="Trazado_20769" data-name="Trazado 20769" d="M75.45,279.92l-.98,2.2a7.189,7.189,0,0,0-3.35-.94c-1.26,0-1.46.46-1.46.81,0,1.9,6.19.81,6.19,4.79,0,2.05-1.72,3.7-4.73,3.7a9.278,9.278,0,0,1-4.81-1.24l.89-2.16a8.087,8.087,0,0,0,3.86.98c1.31,0,1.83-.35,1.83-.94,0-2.13-6.14-.7-6.14-4.73,0-1.85,1.39-3.48,4.51-3.48a9.145,9.145,0,0,1,4.2,1" fill="#00c1d4"/>
  <path id="Trazado_20770" data-name="Trazado 20770" d="M79.96,290.55a1.649,1.649,0,0,1-1.29-1.61,1.554,1.554,0,0,1,1.61-1.61,1.871,1.871,0,0,1,1.92,2.09c0,2.05-1.18,3.33-3.16,4.51l-.37-.72a3.609,3.609,0,0,0,1.29-2.66" fill="#00c1d4"/>
  <path id="Trazado_20771" data-name="Trazado 20771" d="M90.2,276.54a2.176,2.176,0,0,0-.63.11l-.18-1.76a2.928,2.928,0,0,1,1.88-.57,2.443,2.443,0,0,1,2.7,2.7v3.44a5.065,5.065,0,0,1,3.59-1.44c2.18,0,3.86,1.22,3.86,4.25v4.16c0,.46.24.74.8.74a2.176,2.176,0,0,0,.63-.11l.17,1.76a2.914,2.914,0,0,1-1.87.57,2.443,2.443,0,0,1-2.7-2.7v-4.14c0-1.55-.87-2.13-2.22-2.13a2.723,2.723,0,0,0-2.27.96v7.76H91V277.29c0-.46-.24-.74-.81-.74" fill="#00c1d4"/>
  <path id="Trazado_20772" data-name="Trazado 20772" d="M114.79,283.47v3.96c0,.46.24.74.81.74a2.176,2.176,0,0,0,.63-.11l.17,1.76a2.914,2.914,0,0,1-1.87.57,2.469,2.469,0,0,1-2.46-1.37,3.9,3.9,0,0,1-3.22,1.33c-2.33,0-3.73-1.18-3.73-3.48,0-2.46,1.61-3.35,3.99-3.35a12.341,12.341,0,0,1,2.72.35v-.13c0-1.98-1.31-2.31-2.44-2.31a7.35,7.35,0,0,0-3.05.74l-.92-2.05a10.124,10.124,0,0,1,4.47-1.09c2.9,0,4.9,1.46,4.9,4.44m-5.2,4.53a3.562,3.562,0,0,0,2.24-.74v-1.31a7.479,7.479,0,0,0-2.09-.33c-1.11,0-1.66.33-1.66,1.24,0,.85.5,1.13,1.5,1.13" fill="#00c1d4"/>
  <path id="Trazado_20773" data-name="Trazado 20773" d="M128.98,283.71h-2.81a2.208,2.208,0,0,0-2.27-2.46c-1.72,0-2.55,1.35-2.55,3.18s.87,3.4,3.16,3.4a5.2,5.2,0,0,0,3.09-1.05l1.35,1.98a7.177,7.177,0,0,1-4.83,1.7,5.4,5.4,0,0,1-5.71-5.71c0-3.31,2.11-5.88,5.71-5.88a4.647,4.647,0,0,1,4.86,4.84" fill="#00c1d4"/>
  <path id="Trazado_20774" data-name="Trazado 20774" d="M133.14,279.16c1.53,0,2.46.41,2.46,2.33l-.04,5.95c0,.46.24.74.81.74a1.881,1.881,0,0,0,.63-.11l.17,1.77a2.914,2.914,0,0,1-1.87.57,2.443,2.443,0,0,1-2.7-2.7l.04-5.58c0-.46-.28-.74-.85-.74a2.176,2.176,0,0,0-.63.11l-.18-1.98a8.751,8.751,0,0,1,2.16-.35m-1.18-2.97a1.843,1.843,0,0,1,1.92-1.9,1.8,1.8,0,0,1,1.88,1.9,1.9,1.9,0,1,1-3.8,0" fill="#00c1d4"/>
  <path id="Trazado_20775" data-name="Trazado 20775" d="M148.93,283.47v3.96c0,.46.24.74.81.74a2.176,2.176,0,0,0,.63-.11l.17,1.76a2.914,2.914,0,0,1-1.87.57,2.469,2.469,0,0,1-2.46-1.37,3.9,3.9,0,0,1-3.22,1.33c-2.33,0-3.73-1.18-3.73-3.48,0-2.46,1.61-3.35,3.99-3.35a12.341,12.341,0,0,1,2.72.35v-.13c0-1.98-1.31-2.31-2.44-2.31a7.35,7.35,0,0,0-3.05.74l-.92-2.05a10.124,10.124,0,0,1,4.47-1.09c2.9,0,4.9,1.46,4.9,4.44m-5.2,4.53a3.562,3.562,0,0,0,2.24-.74v-1.31a7.479,7.479,0,0,0-2.09-.33c-1.11,0-1.66.33-1.66,1.24,0,.85.5,1.13,1.5,1.13" fill="#00c1d4"/>
  <path id="Trazado_20776" data-name="Trazado 20776" d="M168.41,283.47v3.96c0,.46.24.74.81.74a2.176,2.176,0,0,0,.63-.11l.17,1.76a2.914,2.914,0,0,1-1.87.57,2.469,2.469,0,0,1-2.46-1.37,3.9,3.9,0,0,1-3.22,1.33c-2.33,0-3.73-1.18-3.73-3.48,0-2.46,1.61-3.35,3.99-3.35a12.341,12.341,0,0,1,2.72.35v-.13c0-1.98-1.31-2.31-2.44-2.31a7.35,7.35,0,0,0-3.05.74l-.92-2.05a10.124,10.124,0,0,1,4.47-1.09c2.9,0,4.9,1.46,4.9,4.44M163.2,288a3.544,3.544,0,0,0,2.24-.74v-1.31a7.479,7.479,0,0,0-2.09-.33c-1.11,0-1.66.33-1.66,1.24,0,.85.5,1.13,1.5,1.13" fill="#00c1d4"/>
  <path id="Trazado_20777" data-name="Trazado 20777" d="M182.48,290.4a2.464,2.464,0,0,1-2.42-1.29,3.558,3.558,0,0,1-3.01,1.24c-3.33,0-5.03-2.46-5.03-5.58,0-3.33,1.96-5.73,5.34-5.73a4.6,4.6,0,0,1,2.42.61v-2.48c0-.54-.17-.68-.68-.68-.09,0-.22,0-.54.02l-.18-2.09a12.167,12.167,0,0,1,1.46-.11c1.87,0,2.9.83,2.9,2.7v10.41c0,.46.24.74.8.74a2.176,2.176,0,0,0,.63-.11l.17,1.76a2.928,2.928,0,0,1-1.88.57m-4.81-2.29a4.169,4.169,0,0,0,2.14-.61v-5.64a5.189,5.189,0,0,0-2.05-.41c-2.16,0-2.77,1.15-2.77,3.09,0,1.68.46,3.57,2.68,3.57" fill="#00c1d4"/>
  <path id="Trazado_20778" data-name="Trazado 20778" d="M196.62,282.23c0,2.37-2.09,3.9-7.12,4.05a3,3,0,0,0,3.1,1.72,8.643,8.643,0,0,0,3.24-.72l.76,2.07a9.787,9.787,0,0,1-4.45,1.11,5.387,5.387,0,0,1-5.79-5.69,5.618,5.618,0,0,1,5.84-5.88c2.18,0,4.42.98,4.42,3.33m-3.05.07c0-.74-.5-1.07-1.48-1.07a2.981,2.981,0,0,0-2.88,2.83c3.05-.15,4.36-.48,4.36-1.76" fill="#00c1d4"/>
  <path id="Trazado_20779" data-name="Trazado 20779" d="M202.51,290.4a2.443,2.443,0,0,1-2.7-2.7V277.29c0-.46-.24-.74-.81-.74a2.176,2.176,0,0,0-.63.11l-.18-1.76a2.914,2.914,0,0,1,1.87-.57,2.443,2.443,0,0,1,2.7,2.7v10.41c0,.46.24.74.81.74a2.176,2.176,0,0,0,.63-.11l.17,1.76a2.914,2.914,0,0,1-1.87.57" fill="#00c1d4"/>
  <path id="Trazado_20780" data-name="Trazado 20780" d="M216.15,283.47v3.96c0,.46.24.74.81.74a2.176,2.176,0,0,0,.63-.11l.17,1.76a2.914,2.914,0,0,1-1.87.57,2.469,2.469,0,0,1-2.46-1.37,3.9,3.9,0,0,1-3.22,1.33c-2.33,0-3.73-1.18-3.73-3.48,0-2.46,1.61-3.35,3.99-3.35a12.341,12.341,0,0,1,2.72.35v-.13c0-1.98-1.31-2.31-2.44-2.31a7.35,7.35,0,0,0-3.05.74l-.91-2.05a10.092,10.092,0,0,1,4.47-1.09c2.9,0,4.9,1.46,4.9,4.44M210.94,288a3.544,3.544,0,0,0,2.24-.74v-1.31a7.479,7.479,0,0,0-2.09-.33c-1.11,0-1.66.33-1.66,1.24,0,.85.5,1.13,1.5,1.13" fill="#00c1d4"/>
  <path id="Trazado_20781" data-name="Trazado 20781" d="M219.96,281.38a2.176,2.176,0,0,0-.63.11l-.17-1.76a2.928,2.928,0,0,1,1.88-.57,2.46,2.46,0,0,1,2.48,1.42,5.237,5.237,0,0,1,3.94-1.55c2.4,0,3.77,1.24,3.77,4.25v4.16c0,.46.24.74.8.74a2.176,2.176,0,0,0,.63-.11l.17,1.77a2.928,2.928,0,0,1-1.88.57,2.443,2.443,0,0,1-2.7-2.7v-4.14c0-1.61-.67-2.14-1.81-2.14a3.013,3.013,0,0,0-2.72,1.5v7.21h-2.96v-8.02c0-.46-.24-.74-.81-.74" fill="#00c1d4"/>
  <path id="Trazado_20782" data-name="Trazado 20782" d="M239.89,288a9.417,9.417,0,0,0,1.81-.24l.44,2.14a8.423,8.423,0,0,1-3.14.57c-1.68,0-3.33-.65-3.33-3.14v-5.77H234.1l.17-2.09h1.39v-2.51l2.96-.43v2.94h2.9l-.17,2.09h-2.72v5.38c0,.76.39,1.07,1.26,1.07" fill="#00c1d4"/>
  <path id="Trazado_20783" data-name="Trazado 20783" d="M254.4,282.23c0,2.37-2.09,3.9-7.12,4.05a2.985,2.985,0,0,0,3.09,1.72,8.643,8.643,0,0,0,3.24-.72l.76,2.07a9.777,9.777,0,0,1-4.44,1.11,5.387,5.387,0,0,1-5.79-5.69,5.618,5.618,0,0,1,5.84-5.88c2.18,0,4.42.98,4.42,3.33m-3.05.07c0-.74-.5-1.07-1.48-1.07a2.981,2.981,0,0,0-2.88,2.83c3.05-.15,4.36-.48,4.36-1.76" fill="#00c1d4"/>
  <path id="Trazado_20784" data-name="Trazado 20784" d="M117.36,99.59s16-5.04,16-25.98c0-22.9-15.93-33.97-45.77-33.97H28.32V136a11.286,11.286,0,0,0,11.32,11.24H56.63V113.26H90.66c13.79,0,22.6,4.91,22.6,16.99s-8.81,16.99-22.6,16.99H56.63v22.65H94.56c24.61,0,48.15-9.02,48.15-39.64,0-19.45-13.73-28.71-25.35-30.66M81.17,90.61H56.63V62.29H81.17c14.17,0,22.41,3.34,22.41,13.93,0,11.52-8.24,14.39-22.41,14.39" fill="#003865"/>
  <path id="Trazado_20785" data-name="Trazado 20785" d="M164.24,79.29a11.365,11.365,0,0,0-11.33,11.33V169.9h28.32V79.29H164.24Z" fill="#003865"/>
  <path id="Trazado_20786" data-name="Trazado 20786" d="M158.57,39.64a5.681,5.681,0,0,0-5.66,5.66V62.29h22.65a5.681,5.681,0,0,0,5.66-5.66V39.64Z" fill="#00c1d4"/>
  <path id="Trazado_20787" data-name="Trazado 20787" d="M226.53,0H192.55a11.365,11.365,0,0,0-11.33,11.33V39.65H215.2a11.37,11.37,0,0,0,11.33-11.32Z" fill="#ffb81d"/>
  <path id="Trazado_20788" data-name="Trazado 20788" d="M30.58,232.44V215.06h6.83c4.2,0,6.8,1.09,6.8,4.35a3.554,3.554,0,0,1-2.09,3.63,3.96,3.96,0,0,1,3.28,4.32c0,3.55-2.58,5.09-6.78,5.09H30.57Zm3.82-14.3v3.73h3.03c1.84,0,2.9-.35,2.9-1.89,0-1.41-1.07-1.84-2.9-1.84Zm0,6.63v4.59h4.22c1.79,0,2.93-.72,2.93-2.26s-1.14-2.33-2.93-2.33Z" fill="#003865"/>
  <path id="Trazado_20789" data-name="Trazado 20789" d="M73.26,232.44l-1.86-4.17H64.02l-1.91,4.17H58.16l7.77-17.39h3.8l7.6,17.39Zm-8.02-7.08h4.92l-2.43-5.96-2.48,5.96Z" fill="#003865"/>
  <path id="Trazado_20790" data-name="Trazado 20790" d="M91.19,232.44V215.06h3.97l7.95,11.59V215.06h3.83v17.38h-3.95l-7.97-11.65v11.65Z" fill="#003865"/>
  <path id="Trazado_20791" data-name="Trazado 20791" d="M130.95,215.06c4.22,0,6.78,1.59,6.78,5.59s-2.56,5.54-6.78,5.54h-3.6v6.26h-3.83V215.06h7.43Zm-3.61,3.08v4.97h3.6c1.84,0,2.93-.79,2.93-2.46,0-1.79-1.09-2.51-2.93-2.51h-3.6Z" fill="#003865"/>
  <path id="Trazado_20792" data-name="Trazado 20792" d="M163.23,232.44l-1.86-4.17h-7.38l-1.91,4.17h-3.95l7.77-17.39h3.8l7.6,17.39Zm-8.03-7.08h4.92l-2.43-5.96-2.48,5.96Z" fill="#003865"/>
  <rect id="Rectángulo_6912" data-name="Rectángulo 6912" width="3.83" height="17.38" transform="translate(181.15 215.06)" fill="#003865"/>
  <path id="Trazado_20793" data-name="Trazado 20793" d="M213.04,219.15a13.624,13.624,0,0,0-5.66-1.27c-1.96,0-3.13.37-3.13,1.42s0,1.52,4.62,2.86c3.08.89,6.03,1.52,6.03,5.24,0,4.4-4.17,5.34-7.7,5.34a13.989,13.989,0,0,1-7.72-2.16l1.74-2.83a11.427,11.427,0,0,0,5.81,1.86c1.54,0,4-.42,4-2.18,0-1.42-1.57-1.86-3.45-2.36-4.79-1.27-7.18-2.01-7.18-5.26,0-3.43,2.66-5.04,7.15-5.04a14.591,14.591,0,0,1,6.66,1.54l-1.17,2.86Z" fill="#003865"/>
  <path id="Trazado_20794" data-name="Trazado 20794" d="M183.63,209.52h4.46l-3.28,4.06h-3.23Z" fill="#003865"/>
</svg>
