<svg id="Capa_1" data-name="Capa 1" xmlns="http://www.w3.org/2000/svg" width="562" height="195.44" viewBox="0 0 562 195.44">
  <path id="Trazado_20744" data-name="Trazado 20744" d="M102.43,114.57s18.41-5.8,18.41-29.89c0-26.35-18.32-39.08-52.65-39.08H0V156.45a12.991,12.991,0,0,0,13.03,12.93H32.58V130.29H71.73c15.86,0,26,5.65,26,19.54s-10.14,19.55-26,19.55H32.58v26.06H76.21c28.31,0,55.38-10.38,55.38-45.6,0-22.37-15.8-33.02-29.16-35.27M60.8,104.24H32.58V71.66H60.8c16.31,0,25.78,3.85,25.78,16.03,0,13.25-9.48,16.55-25.78,16.55" fill="#fff"/>
  <path id="Trazado_20745" data-name="Trazado 20745" d="M156.35,91.21a13.077,13.077,0,0,0-13.03,13.03v91.2h32.57V91.21Z" fill="#fff"/>
  <path id="Trazado_20746" data-name="Trazado 20746" d="M149.84,45.6a6.538,6.538,0,0,0-6.52,6.51V71.65h26.06a6.54,6.54,0,0,0,6.52-6.52V45.59H149.84Z" fill="#03c1d4"/>
  <path id="Trazado_20747" data-name="Trazado 20747" d="M228.01,0H188.92a13.077,13.077,0,0,0-13.03,13.03V45.6h39.09a13.07,13.07,0,0,0,13.03-13.03Z" fill="#ffb81d"/>
  <path id="Trazado_20748" data-name="Trazado 20748" d="M228.07,149.29V117.8h12.37c7.6,0,12.33,1.98,12.33,7.87,0,2.16-.45,5.17-3.78,6.57,4.68,1.35,5.94,4.09,5.94,7.83,0,6.43-4.68,9.22-12.29,9.22H228.06ZM235,123.38v6.75h5.49c3.33,0,5.26-.63,5.26-3.42,0-2.56-1.93-3.33-5.26-3.33H235Zm0,12.01v8.32h7.65c3.24,0,5.31-1.3,5.31-4.09s-2.07-4.23-5.31-4.23Z" fill="#fff"/>
  <path id="Trazado_20749" data-name="Trazado 20749" d="M305.4,149.29l-3.37-7.56H288.67l-3.46,7.56h-7.15l14.08-31.49h6.88l13.77,31.49h-7.38Zm-14.53-12.82h8.91l-4.41-10.8Z" fill="#fff"/>
  <path id="Trazado_20750" data-name="Trazado 20750" d="M337.88,149.3V117.8h7.2l14.4,21.01V117.8h6.93v31.5h-7.16l-14.44-21.11V149.3Z" fill="#fff"/>
  <path id="Trazado_20751" data-name="Trazado 20751" d="M409.9,117.8c7.65,0,12.29,2.88,12.29,10.12s-4.64,10.03-12.29,10.03h-6.52v11.34h-6.93V117.8H409.9Zm-6.52,5.58v9h6.52c3.33,0,5.31-1.44,5.31-4.45,0-3.24-1.98-4.54-5.31-4.54h-6.52Z" fill="#fff"/>
  <path id="Trazado_20752" data-name="Trazado 20752" d="M468.38,149.29l-3.37-7.56H451.65l-3.46,7.56h-7.15l14.08-31.49H462l13.77,31.49h-7.38Zm-14.53-12.82h8.91l-4.41-10.8Z" fill="#fff"/>
  <rect id="Rectángulo_6908" data-name="Rectángulo 6908" width="6.93" height="31.49" transform="translate(500.86 117.8)" fill="#fff"/>
  <path id="Trazado_20753" data-name="Trazado 20753" d="M558.63,125.22a24.591,24.591,0,0,0-10.26-2.29c-3.55,0-5.67.67-5.67,2.57s0,2.74,8.37,5.17c5.58,1.62,10.93,2.74,10.93,9.49,0,7.96-7.56,9.67-13.95,9.67a25.289,25.289,0,0,1-13.99-3.92l3.15-5.13c4.01,2.3,7.2,3.38,10.53,3.38,2.79,0,7.24-.76,7.24-3.96,0-2.56-2.83-3.38-6.25-4.27-8.68-2.29-13-3.65-13-9.54,0-6.21,4.81-9.13,12.96-9.13a26.375,26.375,0,0,1,12.06,2.79l-2.11,5.17Z" fill="#fff"/>
  <path id="Trazado_20754" data-name="Trazado 20754" d="M505.34,107.76h8.09l-5.94,7.36h-5.85Z" fill="#fff"/>
</svg>
