<svg id="Capa_1" data-name="Capa 1" xmlns="http://www.w3.org/2000/svg" width="232.13" height="272.57" viewBox="0 0 232.13 272.57">
  <path id="Trazado_20733" data-name="Trazado 20733" d="M104.28,116.64s18.74-5.9,18.74-30.43c0-26.82-18.65-39.78-53.6-39.78H0V159.28a13.226,13.226,0,0,0,13.26,13.17h19.9V132.66H73.01c16.15,0,26.47,5.76,26.47,19.9s-10.32,19.9-26.47,19.9H33.16v26.53H77.58c28.83,0,56.38-10.57,56.38-46.42,0-22.77-16.09-33.62-29.69-35.91M61.9,106.12H33.16V72.96H61.9c16.6,0,26.25,3.91,26.25,16.32,0,13.49-9.65,16.85-26.25,16.85" fill="#003865"/>
  <path id="Trazado_20734" data-name="Trazado 20734" d="M159.17,92.85a13.314,13.314,0,0,0-13.27,13.27v92.85h33.16V92.86h-19.9Z" fill="#003865"/>
  <path id="Trazado_20735" data-name="Trazado 20735" d="M152.54,46.43a6.651,6.651,0,0,0-6.63,6.63v19.9h26.53a6.651,6.651,0,0,0,6.63-6.63V46.43Z" fill="#00c1d4"/>
  <path id="Trazado_20736" data-name="Trazado 20736" d="M232.13,0h-39.8a13.3,13.3,0,0,0-13.26,13.26V46.42h39.79a13.3,13.3,0,0,0,13.26-13.26V0Z" fill="#ffb81d"/>
  <path id="Trazado_20737" data-name="Trazado 20737" d="M2.65,272.21V251.85h8c4.92,0,7.97,1.28,7.97,5.09a4.162,4.162,0,0,1-2.44,4.25c3.02.87,3.84,2.65,3.84,5.06,0,4.16-3.03,5.96-7.94,5.96Zm4.48-16.75v4.36h3.55c2.15,0,3.4-.41,3.4-2.21,0-1.66-1.25-2.15-3.4-2.15H7.13Zm0,7.77v5.38h4.94c2.09,0,3.43-.84,3.43-2.65s-1.34-2.73-3.43-2.73H7.13Z" fill="#003865"/>
  <path id="Trazado_20738" data-name="Trazado 20738" d="M52.64,272.21l-2.18-4.89H41.82l-2.24,4.89H34.96l9.1-20.36h4.45l8.9,20.36H52.64Zm-9.4-8.28H49l-2.85-6.98Z" fill="#003865"/>
  <path id="Trazado_20739" data-name="Trazado 20739" d="M73.63,272.21V251.86h4.65l9.31,13.58V251.86h4.48v20.35H87.44l-9.33-13.64v13.64Z" fill="#003865"/>
  <path id="Trazado_20740" data-name="Trazado 20740" d="M120.19,251.86c4.94,0,7.94,1.86,7.94,6.54s-3,6.49-7.94,6.49h-4.22v7.33h-4.48V251.86h8.7Zm-4.22,3.6v5.82h4.22c2.15,0,3.43-.93,3.43-2.88,0-2.09-1.28-2.94-3.43-2.94h-4.22Z" fill="#003865"/>
  <path id="Trazado_20741" data-name="Trazado 20741" d="M157.99,272.21l-2.18-4.89h-8.64l-2.24,4.89h-4.62l9.1-20.36h4.45l8.9,20.36Zm-9.39-8.28h5.76l-2.85-6.98-2.91,6.98Z" fill="#003865"/>
  <rect id="Rectángulo_6907" data-name="Rectángulo 6907" width="4.48" height="20.36" transform="translate(178.99 251.85)" fill="#003865"/>
  <path id="Trazado_20742" data-name="Trazado 20742" d="M216.33,256.65a15.962,15.962,0,0,0-6.63-1.48c-2.3,0-3.66.44-3.66,1.66s0,1.77,5.41,3.35c3.61,1.05,7.07,1.77,7.07,6.14,0,5.15-4.89,6.25-9.02,6.25a16.445,16.445,0,0,1-9.05-2.53l2.04-3.32a13.462,13.462,0,0,0,6.8,2.18c1.8,0,4.68-.49,4.68-2.56,0-1.66-1.83-2.18-4.04-2.76-5.61-1.48-8.41-2.36-8.41-6.17,0-4.01,3.11-5.9,8.38-5.9a17.1,17.1,0,0,1,7.8,1.8l-1.37,3.35Z" fill="#003865"/>
  <path id="Trazado_20743" data-name="Trazado 20743" d="M181.88,245.37h5.23l-3.84,4.75h-3.78Z" fill="#003865"/>
</svg>
